<svg viewBox="0 0 500 500" xmlns="http://www.w3.org/2000/svg">
  <defs></defs>
  <g transform="matrix(0.1, 0, 0, -0.1, 170.693039, 309.356873)" fill="#000000" stroke="none">
    <path d="M 690 1418 C 665 1405 537 1334 406 1260 C 231 1161 162 1117 148 1095 C 132 1068 130 1038 130 750 C 130 462 132 432 148 405 C 162 383 238 335 441 220 C 682 84 720 65 760 65 C 799 65 834 81 1025 189 C 1335 363 1359 378 1375 410 C 1387 434 1390 495 1390 750 C 1390 1108 1392 1099 1303 1153 C 1097 1276 804 1433 772 1437 C 746 1440 722 1435 690 1418 Z M 906 1076 C 961 1051 1051 977 1039 966 C 1037 964 1008 946 976 927 L 917 891 L 888 915 C 758 1024 549 921 550 748 C 551 578 760 477 888 585 L 917 609 L 976 573 C 1008 554 1037 536 1039 534 C 1051 523 961 449 906 423 C 854 399 832 395 760 395 C 688 395 666 399 615 423 C 537 459 469 527 433 604 C 409 656 405 678 405 750 C 405 822 409 844 433 895 C 519 1079 725 1157 906 1076 Z M 1060 810 C 1060 783 1063 780 1090 780 C 1117 780 1120 777 1120 750 C 1120 723 1117 720 1090 720 C 1063 720 1060 717 1060 690 C 1060 663 1057 660 1030 660 C 1003 660 1000 663 1000 690 C 1000 717 997 720 970 720 C 943 720 940 723 940 750 C 940 777 1003 840 1030 840 C 1057 840 1060 837 1060 810 Z M 1270 810 C 1270 783 1273 780 1300 780 C 1327 780 1330 777 1330 750 C 1330 723 1327 720 1300 720 C 1273 720 1270 717 1270 690 C 1270 663 1267 660 1240 660 C 1213 660 1210 663 1210 690 C 1210 717 1207 720 1180 720 C 1153 720 1150 723 1150 750 C 1150 777 1153 780 1180 780 C 1207 780 1210 783 1210 810 C 1210 837 1213 840 1240 840 C 1267 840 1270 837 1270 810 Z" style=""></path>
  </g>
  <path style="stroke: rgb(0, 0, 0);" d="M 261.196 224.033 L 261.181 244.165 L 305.844 244.703 L 305.22 224.676"></path>
</svg>